<svg id="selenium_ide" data-name="Selenium IDE" xmlns="http://www.w3.org/2000/svg" viewBox="0 0 57.28 60">
  <defs>
    <style>.cls-selenium_ide{fill:#0033a0;}</style>
  </defs>
  <title>Selenium IDE</title>
  <path class="cls-selenium_ide" d="M56.84,0H.44A.44.44,0,0,0,0,.44V59.56A.44.44,0,0,0,.44,60H56.84a.44.44,0,0,0,.44-.44V.44A.44.44,0,0,0,56.84,0ZM16,53.42a14.26,14.26,0,0,1-10.13-3.6.55.55,0,0,1-.07-.72L8,46a.55.55,0,0,1,.83-.09,10.85,10.85,0,0,0,7.42,2.9c2.9,0,4.31-1.34,4.31-2.75,0-4.38-14.25-1.37-14.25-10.69,0-4.12,3.56-7.53,9.39-7.53A13.91,13.91,0,0,1,24.95,31a.55.55,0,0,1,.07.75l-2.26,3a.55.55,0,0,1-.79.09,10.74,10.74,0,0,0-6.77-2.33c-2.26,0-3.53,1-3.53,2.49,0,3.93,14.21,1.3,14.21,10.54C25.89,50,22.66,53.42,16,53.42Zm31.1-8.59a.49.49,0,0,1-.49.49h-13a.15.15,0,0,0-.15.17,5,5,0,0,0,5.27,4.09,8.14,8.14,0,0,0,4.52-1.49.48.48,0,0,1,.7.11l1.58,2.32a.49.49,0,0,1-.1.66,11.78,11.78,0,0,1-7.23,2.25c-5.6,0-9.83-3.77-9.83-9.67a9.36,9.36,0,0,1,9.52-9.63c5.48,0,9.22,4.11,9.22,10.13Zm4.53-27.65a.78.78,0,0,1-1.21.66l-5.21-3.38v2.22a1,1,0,0,1-1,1h-13a1,1,0,0,1-1-1V7a1,1,0,0,1,1-1h13a1,1,0,0,1,1,1V9.18L50.4,5.8a.78.78,0,0,1,1.21.66Z"/>
  <path class="cls-selenium_ide" d="M42.38,41.88a.15.15,0,0,1-.15.16H33.5a.15.15,0,0,1-.15-.17A4.4,4.4,0,0,1,37.86,38,4.25,4.25,0,0,1,42.38,41.88Z"/>
</svg>